<svg xmlns="http://www.w3.org/2000/svg" xmlns:xlink="http://www.w3.org/1999/xlink" width="457" height="235" viewBox="0 0 457 235"><defs><clipPath id="a"><rect width="457" height="235"/></clipPath></defs><g transform="translate(-152 -276)"><g transform="translate(19 96)"><rect width="450" height="225" transform="translate(136 185)" fill="none"/></g><path d="M1,1V224H449V1H1M0,0H450V225H0Z" transform="translate(155 281)" fill="none"/><g transform="translate(152 276)" clip-path="url(#a)"><g transform="translate(88.349 76.579)"><g transform="translate(0)"><path d="M28.792,74.874c13.387-2.426,24.445-4.434,24.571-4.462l.232-.05L40.952,54.939C34,46.456,28.308,39.482,28.308,39.442c0-.077,13.05-36.947,13.125-37.079.024-.044,8.905,15.688,21.529,38.133L84.623,79l.165.3H4.45Zm154.041-3.731c-6.115-.4-9.67-3.974-10.613-10.66-.251-1.779-.251-1.825-.277-13.372l-.024-11.174h5.412l.021,10.809c.02,9.741.032,10.884.122,11.565a10.4,10.4,0,0,0,2.35,5.994,6.69,6.69,0,0,0,3.789,2.032,14.049,14.049,0,0,0,3.635,0,7.975,7.975,0,0,0,4.113-2.294,11.27,11.27,0,0,0,2.775-5.459l.152-.735.018-10.9.018-10.9h5.525V70.331h-5.469V67.613a21.13,21.13,0,0,0-.061-2.7,2.24,2.24,0,0,0-.3.489,11.269,11.269,0,0,1-4.232,4.346,11.628,11.628,0,0,1-6.956,1.393Zm62.062-.028a14.088,14.088,0,0,1-6.288-2.107c-3.915-2.485-6.232-6.58-6.91-12.217a30.291,30.291,0,0,1-.067-6.228,20.53,20.53,0,0,1,3.875-9.933,20.061,20.061,0,0,1,2.341-2.4,14.429,14.429,0,0,1,5.975-2.926,18.933,18.933,0,0,1,4.844-.289,12.637,12.637,0,0,1,8.587,4.532A17.6,17.6,0,0,1,260.72,50.3c.023.7.029,1.939.012,2.744l-.031,1.463-11.844.016-11.844.016v.542a13.739,13.739,0,0,0,1.066,5.131,11.3,11.3,0,0,0,2.408,3.615,10.454,10.454,0,0,0,6,2.6,22.827,22.827,0,0,0,3.923-.156,16.4,16.4,0,0,0,7.4-3.126c.245-.189.481-.366.522-.392a10.514,10.514,0,0,1,.073,2.53v2.58l-.559.355a19.277,19.277,0,0,1-7.937,2.822,44.419,44.419,0,0,1-5.018.077ZM255.2,49.359a11.207,11.207,0,0,0-2.742-7.419,7.463,7.463,0,0,0-4.182-2.08,12.046,12.046,0,0,0-3.246.094,8.42,8.42,0,0,0-4.43,2.416,12.435,12.435,0,0,0-2.931,4.814,15.786,15.786,0,0,0-.567,2.366l-.038.289H255.2ZM94.546,70.256c.014-.042,4.035-10.882,8.937-24.088l8.912-24.012h5.728l.238.625c.727,1.91,17.841,47.5,17.841,47.523s-1.371.028-3.047.028h-3.047l-2.466-6.741-2.468-6.737H105.311l-.087.228c-.047.125-1.1,3.157-2.341,6.737l-2.256,6.509H97.58a16.039,16.039,0,0,1-3.027-.075Zm28.817-18.543c0-.011-1.66-4.628-3.69-10.26-3.8-10.537-4.008-11.171-4.308-12.864-.14-.794-.212-.816-.3-.092a17.187,17.187,0,0,1-.518,2.318c-.1.313-1.808,5.132-3.8,10.7s-3.618,10.14-3.618,10.169,3.656.052,8.113.052,8.113-.009,8.113-.019Zm14.682,17.741v-.878l9.9-13.956,9.9-13.956-8.96-.031-8.96-.031-.015-2.333-.015-2.333h25.918v1.578l-9.9,14.033c-5.443,7.717-9.9,14.045-9.9,14.066s4.4.028,9.778.028h9.778v4.689H138.044Zm72.617.836c-.021-.022-.04-7.761-.04-17.191V35.938h5.409v3.545c0,1.946.023,3.537.052,3.537a3.192,3.192,0,0,0,.292-.708,12.261,12.261,0,0,1,3.021-4.774,7.759,7.759,0,0,1,4.273-2.18,8.632,8.632,0,0,1,1.784-.067,7.713,7.713,0,0,1,2.482.356l.222.075v5.761l-.638-.328a6.678,6.678,0,0,0-3.581-.738,6.342,6.342,0,0,0-2.133.43A6.809,6.809,0,0,0,218.4,43.7a16.875,16.875,0,0,0-2.262,6.673c-.044.408-.07,3.732-.081,10.284l-.015,9.68h-2.664c-1.475-.006-2.692-.023-2.713-.047Zm-230.075-.12c0-.022,5.956-10.627,13.235-23.569L7.054,23.072,22.478,9.788C30.96,2.488,37.925-3.5,37.952-3.507a2.824,2.824,0,0,1-.248.641L20.956,33.986,4.5,70.178l-11.961.016c-6.579.008-11.961,0-11.961-.023Z" transform="translate(19.418 3.507)" fill="#0089d6"/></g></g></g></g></svg>